<?xml version="1.0" standalone="no"?>
<!DOCTYPE svg PUBLIC "-//W3C//DTD SVG 20010904//EN"
 "http://www.w3.org/TR/2001/REC-SVG-20010904/DTD/svg10.dtd">
<svg version="1.0" xmlns="http://www.w3.org/2000/svg"
 width="600.000000pt" height="201.000000pt" viewBox="0 0 600.000000 201.000000"
 preserveAspectRatio="xMidYMid meet">
<g transform="translate(0.000000,201.000000) scale(0.100000,-0.100000)"
fill="#000000" stroke="none">
<path d="M0 1995 c0 -13 333 -15 3000 -15 2646 0 3000 2 3000 15 0 13 -354 15
-3000 15 -2667 0 -3000 -2 -3000 -15z"/>
<path d="M5995 985 c0 -545 1 -766 2 -492 2 274 2 720 0 990 -1 271 -2 47 -2
-498z"/>
<path d="M900 1586 c-76 -20 -190 -119 -253 -218 -26 -41 -20 -57 9 -23 15 17
37 42 50 58 13 15 21 27 18 27 -4 0 1 9 11 20 10 11 22 17 27 14 4 -3 7 -2 6
3 -3 9 5 13 28 13 9 0 14 -6 11 -12 -2 -7 -10 -12 -16 -10 -7 1 -10 -2 -6 -8
3 -5 -1 -13 -10 -17 -10 -3 -21 0 -25 7 -5 8 -10 8 -14 2 -3 -6 0 -12 6 -15
10 -3 10 -7 -1 -21 -8 -9 -16 -14 -19 -12 -8 9 -71 -77 -104 -142 -33 -66 -46
-77 -27 -23 6 18 9 34 6 37 -9 9 -37 -88 -43 -150 -7 -75 32 -245 72 -314 14
-24 23 -46 20 -49 -12 -12 40 -91 98 -148 110 -109 251 -165 416 -165 126 0
248 38 320 99 14 12 -2 5 -35 -14 -73 -43 -137 -63 -224 -70 l-66 -5 80 14
c93 16 152 36 215 74 25 14 50 25 57 24 15 -3 94 91 131 158 64 117 78 232 42
372 -44 177 -140 288 -300 349 -28 10 -50 17 -50 15 0 -3 34 -21 76 -41 42
-20 94 -53 117 -73 54 -49 112 -141 132 -207 20 -69 20 -238 0 -294 -8 -23
-10 -39 -5 -36 15 9 11 -17 -6 -45 l-15 -25 7 25 c4 17 -3 11 -23 -20 -75
-114 -252 -237 -363 -251 -30 -4 -68 -11 -83 -15 -28 -6 -152 14 -142 24 3 3
-17 13 -44 23 -108 37 -229 149 -286 263 -19 38 -35 64 -35 58 0 -6 -3 -19 -6
-29 -5 -15 -4 -15 5 -3 12 17 15 2 3 -17 -5 -8 -18 8 -36 48 -24 53 -27 71
-27 157 1 53 5 111 10 127 8 22 9 9 5 -50 -5 -95 1 -89 12 10 6 60 9 66 15 40
7 -26 8 -25 4 9 -9 80 74 245 137 273 20 9 35 21 31 26 -3 5 5 7 18 6 14 -2
41 8 64 24 22 15 45 27 51 27 13 0 34 51 34 80 0 14 -23 34 -33 29 -1 0 -22
-6 -47 -13z m14 -27 c-4 -7 1 -7 16 1 12 6 23 10 24 8 7 -8 -25 -68 -37 -68
-8 0 -7 4 3 10 8 5 11 10 5 10 -5 0 -18 -11 -30 -25 -11 -14 -30 -27 -43 -30
-12 -2 -27 -7 -34 -11 -7 -4 -8 -3 -4 5 4 6 2 19 -5 27 -10 12 -10 17 1 27 10
10 12 9 7 -5 -3 -9 0 -19 9 -22 9 -3 12 -1 9 4 -6 9 7 14 27 11 4 0 5 6 1 15
-4 11 -8 12 -13 4 -5 -8 -10 -9 -14 -1 -4 6 10 19 31 30 43 23 57 26 47 10z
m-241 -275 c-18 -37 -33 -73 -33 -80 0 -8 -4 -14 -10 -14 -14 0 -42 -67 -50
-120 l-7 -45 -2 55 c-1 37 4 63 16 79 9 13 29 51 45 85 24 48 63 106 73 106 1
0 -13 -30 -32 -66z m117 -655 c69 -70 165 -127 263 -154 l52 -15 -45 5 c-117
14 -291 138 -358 254 -16 28 -31 48 -35 45 -3 -3 -3 3 0 15 4 17 10 12 32 -32
14 -28 55 -82 91 -118z m-80 48 c24 -32 62 -74 84 -93 23 -20 32 -31 20 -25
-28 13 -124 119 -148 162 -23 42 -13 32 44 -44z"/>
<path d="M1910 1278 c0 -7 41 -126 92 -265 84 -232 94 -253 115 -253 13 0 25
6 27 13 3 11 79 222 152 424 l33 92 -28 -1 c-25 -1 -30 -7 -46 -57 -9 -31 -44
-129 -77 -219 -45 -122 -58 -166 -49 -175 14 -14 15 -30 1 -22 -6 3 -10 -4
-10 -17 0 -18 -2 -20 -9 -8 -6 8 -7 18 -5 22 3 4 0 8 -7 8 -9 0 -8 4 1 15 10
12 -1 51 -58 207 -39 106 -74 205 -77 221 -5 20 -13 27 -31 27 -13 0 -24 -6
-24 -12z"/>
<path d="M2520 1263 c0 -23 2 -23 120 -23 66 0 120 -2 120 -4 0 -2 -16 -33
-36 -68 -164 -287 -204 -363 -204 -384 l0 -24 150 1 150 0 0 25 0 24 -125 0
-126 0 20 28 c30 43 211 368 224 401 6 17 8 33 5 36 -4 4 -72 7 -152 8 -145 2
-146 2 -146 -20z m270 -18 c0 -12 -19 -12 -23 0 -4 9 -1 12 9 8 7 -3 14 -7 14
-8z"/>
<path d="M3007 1263 c-4 -22 -1 -23 62 -23 l66 0 -3 -240 -3 -240 25 0 26 0 0
240 0 240 65 0 c58 0 65 2 65 20 0 18 -7 20 -67 21 -38 0 -105 1 -150 2 -77 2
-82 1 -86 -20z"/>
<path d="M3622 1097 c-40 -107 -72 -197 -72 -201 0 -3 11 -6 24 -6 21 0 27 9
44 58 l19 57 79 0 79 0 20 -57 c17 -51 23 -58 46 -58 l27 0 -55 148 c-30 81
-63 170 -72 197 -14 40 -23 51 -43 53 -23 3 -28 -6 -96 -191z m105 154 c-1 -3
5 -17 12 -31 13 -24 13 -24 -5 -9 -18 15 -49 15 -40 0 3 -4 0 -13 -5 -21 -7
-11 -8 -9 -6 9 2 14 9 27 15 29 6 2 9 9 6 16 -3 7 2 13 10 13 8 0 14 -3 13 -6z
m34 -153 l19 -48 -57 0 c-43 0 -62 -5 -78 -20 -17 -16 -22 -17 -22 -6 0 8 4
13 9 10 9 -6 59 99 73 151 l8 30 14 -35 c9 -19 24 -56 34 -82z m44 -57 c3 -5
2 -12 -3 -15 -5 -3 -9 1 -9 9 0 17 3 19 12 6z"/>
<path d="M4050 1285 c-8 -2 -32 -6 -52 -10 l-38 -6 0 -254 0 -255 25 0 25 0 0
123 0 124 85 -5 85 -4 0 26 c0 26 0 26 -85 26 l-85 0 0 89 0 90 47 7 c43 6 89
5 319 -12 110 -8 167 6 162 39 -2 16 -8 21 -23 17 -28 -7 -209 -6 -340 2 -60
4 -117 5 -125 3z m-45 -254 c3 -5 1 -12 -5 -16 -5 -3 -10 1 -10 9 0 18 6 21
15 7z"/>
<path d="M4625 1270 c-17 -19 -17 -22 -2 -37 13 -13 19 -14 31 -3 19 15 20 21
3 44 -12 16 -14 16 -32 -4z"/>
<path d="M4955 1286 c-5 -2 -23 -7 -38 -10 -42 -10 -112 -80 -138 -139 -42
-96 -22 -234 44 -306 35 -38 115 -71 173 -71 66 0 146 39 179 88 31 45 31 52
2 52 -14 0 -32 -11 -44 -28 -67 -90 -226 -80 -288 19 -72 113 -40 276 65 329
77 39 191 14 228 -51 11 -18 25 -29 40 -29 26 0 26 2 8 38 -30 58 -99 101
-174 107 -26 3 -51 3 -57 1z m0 -26 c-3 -5 -12 -10 -18 -10 -7 0 -6 4 3 10 19
12 23 12 15 0z m183 -55 c-3 -3 -9 2 -12 12 -6 14 -5 15 5 6 7 -7 10 -15 7
-18z m-309 -319 c9 -11 9 -16 0 -22 -8 -4 -9 -3 -5 4 4 7 2 12 -3 12 -6 0 -11
5 -11 10 0 14 5 13 19 -4z m25 -42 c3 -8 2 -12 -4 -9 -6 3 -10 10 -10 16 0 14
7 11 14 -7z"/>
<path d="M5381 1268 c-4 -13 -30 -81 -56 -153 -26 -71 -56 -151 -66 -177 l-19
-48 28 0 c24 0 30 6 47 58 l20 57 79 0 79 0 20 -57 c16 -49 22 -58 43 -58 13
0 24 2 24 5 0 2 -32 92 -71 200 -66 179 -74 195 -96 195 -15 0 -26 -8 -32 -22z
m51 -36 c5 -16 2 -17 -17 -8 -16 7 -19 13 -11 22 13 15 22 10 28 -14z m-17
-182 c-33 -3 -61 -4 -63 -4 -1 1 12 38 29 83 l32 81 31 -78 31 -77 -60 -5z
m-78 -15 c0 -8 -4 -15 -9 -15 -4 0 -8 7 -8 15 0 8 4 15 8 15 5 0 9 -7 9 -15z
m158 5 c-3 -5 -1 -10 6 -10 7 0 10 -3 6 -6 -9 -9 -28 6 -22 17 4 5 8 9 11 9 3
0 2 -4 -1 -10z"/>
<path d="M2400 1264 c-11 -12 -10 -18 3 -31 14 -14 17 -14 32 1 14 13 15 19 5
31 -16 19 -24 19 -40 -1z"/>
<path d="M2900 1264 c-11 -12 -10 -18 3 -32 16 -15 18 -15 34 0 13 14 14 20 3
32 -7 9 -16 16 -20 16 -4 0 -13 -7 -20 -16z"/>
<path d="M4250 961 l0 -201 26 0 26 0 -3 85 -4 85 28 0 c45 0 86 -37 119 -105
25 -53 34 -64 60 -69 37 -7 50 1 25 15 -9 6 -31 37 -47 70 -17 33 -39 67 -50
76 -19 16 -18 17 9 34 59 36 62 127 5 180 -22 21 -37 24 -110 28 l-84 3 0
-201z m170 139 c13 -13 20 -33 20 -59 0 -52 -26 -71 -98 -71 -45 0 -53 3 -48
16 3 9 6 42 6 75 l0 59 50 0 c37 0 55 -5 70 -20z"/>
<path d="M2390 955 l0 -195 25 0 25 0 0 195 0 195 -25 0 -25 0 0 -195z"/>
<path d="M2892 954 l-3 -195 28 3 c15 2 28 9 27 16 -1 6 -2 93 -2 192 -2 180
-2 180 -24 180 -23 0 -23 0 -26 -196z"/>
<path d="M4619 998 c0 -84 -2 -172 -5 -195 -5 -42 -4 -43 24 -43 l28 0 0 195
-1 195 -22 0 c-23 0 -23 -1 -24 -152z"/>
<path d="M633 1020 c0 -30 2 -43 4 -27 2 15 2 39 0 55 -2 15 -4 2 -4 -28z"/>
<path d="M4970 1054 c-11 -12 -10 -18 3 -32 16 -15 18 -15 34 0 13 14 14 20 3
32 -7 9 -16 16 -20 16 -4 0 -13 -7 -20 -16z"/>
<path d="M622 942 c-1 -13 3 -44 10 -70 9 -37 13 -42 19 -26 11 28 10 54 -1
29 -6 -14 -8 -3 -5 35 3 43 2 47 -4 20 l-8 -35 -5 35 c-3 22 -5 26 -6 12z"/>
<path d="M3683 875 c0 -8 4 -12 9 -9 5 3 6 10 3 15 -9 13 -12 11 -12 -6z"/>
<path d="M3700 815 c-15 -18 -6 -45 13 -45 8 0 20 7 27 15 10 12 10 18 0 30
-16 19 -24 19 -40 0z"/>
<path d="M5396 815 c-16 -12 -17 -17 -6 -30 14 -17 20 -18 39 -6 8 5 11 16 6
30 -7 25 -13 25 -39 6z"/>
<path d="M4803 755 c0 -7 6 -11 14 -8 7 3 13 6 13 8 0 2 -6 5 -13 8 -8 3 -14
-1 -14 -8z"/>
<path d="M3260 617 c-57 -29 -16 -97 50 -82 23 5 30 12 30 30 0 18 -5 23 -25
21 -23 -1 -37 -16 -15 -16 6 0 10 -4 10 -10 0 -16 -36 -12 -51 6 -19 23 15 47
56 38 20 -4 27 -3 20 4 -18 18 -50 22 -75 9z"/>
<path d="M3480 617 c-34 -17 -34 -56 1 -76 22 -12 29 -12 55 0 16 8 30 24 32
35 5 37 -47 62 -88 41z m60 -22 c10 -12 10 -18 0 -30 -16 -20 -44 -19 -61 1
-11 14 -10 18 6 30 24 18 39 18 55 -1z"/>
<path d="M4477 617 c-21 -7 -27 -15 -27 -38 0 -23 6 -32 27 -40 30 -11 73 -4
73 12 0 6 -9 8 -20 4 -29 -9 -60 3 -60 25 0 22 23 32 56 24 13 -3 24 -2 24 4
0 14 -42 20 -73 9z"/>
<path d="M4888 622 c-41 -8 -19 -52 26 -52 9 0 16 -5 16 -11 0 -8 -12 -10 -35
-6 -42 7 -47 -9 -6 -18 33 -7 74 10 68 28 -2 7 -18 16 -35 22 -41 12 -42 30
-2 22 17 -4 30 -3 30 2 0 10 -38 18 -62 13z"/>
<path d="M2441 584 c-28 -47 -27 -54 9 -41 24 9 35 9 51 -1 12 -8 23 -11 26
-9 8 9 -37 87 -51 87 -8 0 -23 -16 -35 -36z m38 -13 c-15 -5 -22 6 -14 19 6 9
10 9 16 -1 5 -8 4 -15 -2 -18z"/>
<path d="M2642 578 c2 -25 7 -41 13 -38 6 3 9 15 7 28 -4 29 5 28 34 -3 35
-38 54 -33 54 15 0 30 -4 40 -16 40 -12 0 -15 -6 -10 -25 4 -14 3 -25 -2 -25
-5 0 -19 11 -32 25 -36 38 -52 33 -48 -17z"/>
<path d="M2870 577 l0 -42 45 3 c51 4 68 23 54 60 -7 18 -16 22 -54 22 l-45 0
0 -43z m80 3 c0 -11 -4 -21 -10 -21 -38 -5 -45 -2 -48 19 -3 19 1 22 27 22 24
0 31 -4 31 -20z"/>
<path d="M3830 575 c0 -25 5 -45 10 -45 6 0 10 7 10 15 0 9 9 15 24 15 30 0
57 25 50 45 -4 10 -21 15 -50 15 l-44 0 0 -45z m70 14 c0 -5 -11 -9 -25 -9
-14 0 -25 6 -25 14 0 9 8 12 25 8 14 -2 25 -8 25 -13z"/>
<path d="M4040 578 l0 -43 42 1 c23 1 44 7 46 14 3 8 -6 11 -29 8 -32 -3 -34
-1 -34 30 0 19 -5 32 -12 32 -9 0 -13 -15 -13 -42z"/>
<path d="M4251 581 c-27 -51 -27 -51 9 -38 24 9 35 9 51 -1 31 -20 35 -6 11
36 -29 51 -47 52 -71 3z m49 -2 c0 -5 -7 -9 -15 -9 -9 0 -12 6 -9 15 6 15 24
11 24 -6z"/>
<path d="M4662 578 l3 -41 43 0 c23 0 42 4 43 9 1 5 -13 8 -30 6 -17 -2 -31 1
-31 7 0 6 14 11 30 11 17 0 30 5 30 10 0 6 -13 10 -30 10 -16 0 -30 4 -30 9 0
4 14 7 30 5 17 -2 30 1 30 6 0 6 -21 10 -46 10 l-45 0 3 -42z"/>
<path d="M5070 594 c0 -31 23 -28 28 4 2 15 -2 22 -12 22 -11 0 -16 -9 -16
-26z"/>
<path d="M5072 548 c6 -18 28 -21 28 -4 0 9 -7 16 -16 16 -9 0 -14 -5 -12 -12z"/>
<path d="M2400 516 c0 -2 7 -7 16 -10 8 -3 12 -2 9 4 -6 10 -25 14 -25 6z"/>
<path d="M4346 503 c-6 -14 -5 -15 5 -6 7 7 10 15 7 18 -3 3 -9 -2 -12 -12z"/>
<path d="M1490 506 c0 -2 7 -7 16 -10 8 -3 12 -2 9 4 -6 10 -25 14 -25 6z"/>
</g>
</svg>
